<?xml version="1.0" standalone="no"?>
<!DOCTYPE svg PUBLIC "-//W3C//DTD SVG 20010904//EN"
 "http://www.w3.org/TR/2001/REC-SVG-20010904/DTD/svg10.dtd">
<svg version="1.0" xmlns="http://www.w3.org/2000/svg"
 width="300.000000pt" height="300.000000pt" viewBox="0 0 300.000000 300.000000"
 preserveAspectRatio="xMidYMid meet">
<metadata>
Created by potrace 1.11, written by Peter Selinger 2001-2013
</metadata>
<g transform="translate(0.000000,300.000000) scale(0.100000,-0.100000)"
fill="#000000" stroke="none">
<path d="M1400 2914 c-63 -37 -135 -78 -159 -91 -24 -14 -157 -91 -295 -171
-138 -80 -268 -154 -288 -165 -21 -11 -37 -22 -35 -23 8 -8 250 -144 260 -146
12 -3 181 92 502 279 60 36 116 65 125 66 8 0 69 -31 135 -69 66 -39 244 -142
395 -229 151 -87 322 -186 380 -220 l105 -61 1 -507 c1 -279 0 -507 -2 -507
-2 0 -20 9 -41 21 -47 26 -293 167 -313 179 -43 25 -511 296 -545 315 -22 12
-94 54 -160 92 -66 39 -281 163 -478 277 -196 113 -415 240 -487 281 -71 41
-135 75 -142 74 -7 0 -39 -17 -72 -37 l-58 -37 0 -738 0 -739 33 -21 c32 -19
748 -433 834 -482 22 -13 122 -71 223 -129 101 -58 188 -106 193 -106 6 0 97
50 202 111 106 62 212 123 237 137 25 14 78 45 118 69 41 24 75 43 77 43 2 0
50 28 107 62 56 34 113 67 126 74 23 11 19 14 -70 67 -51 30 -111 64 -133 77
l-40 23 -110 -63 c-106 -61 -268 -154 -303 -175 -126 -74 -201 -115 -211 -115
-6 0 -55 25 -109 56 -53 31 -110 65 -127 74 -16 9 -53 31 -81 47 -27 17 -71
42 -96 56 -71 39 -592 340 -598 344 -6 6 -7 1022 0 1018 3 -1 79 -45 170 -98
91 -52 181 -104 200 -115 19 -10 105 -60 190 -109 85 -49 229 -133 320 -185
91 -52 325 -187 520 -300 195 -113 446 -258 558 -322 l203 -117 47 26 c26 14
56 33 67 41 20 15 20 27 20 750 0 643 -2 737 -15 748 -13 11 -121 74 -280 164
-74 41 -349 202 -428 248 -40 24 -75 44 -77 44 -3 0 -53 29 -112 64 -60 35
-157 91 -218 126 -60 35 -119 69 -130 76 -18 12 -33 6 -135 -52z"/>
</g>
</svg>
