<svg id="criteria" xmlns="http://www.w3.org/2000/svg" viewBox="0 0 60 60"><defs><style>.cls-1{fill:#43beac;}</style></defs><path class="cls-1" d="M51.26,39.33L43,48.55l-4.25-4.25a1,1,0,0,0-1.41,1.41L43,51.45l9.71-10.78A1,1,0,0,0,51.26,39.33Z"/><path class="cls-1" d="M45,30A15,15,0,1,0,60,45,15,15,0,0,0,45,30Zm0,28A13,13,0,1,1,58,45,13,13,0,0,1,45,58Z"/><path class="cls-1" d="M25,52H5c-2.21,0-3-.79-3-3V10h8v2H5a1,1,0,0,0-1,1V49a1,1,0,0,0,1,1H23.7a1,1,0,0,0,0-2H6V14h4v3a1,1,0,0,0,1,1H31a1,1,0,0,0,1-1V14h4V24a1,1,0,0,0,2,0V13a1,1,0,0,0-1-1H32V10h8V23.7a1,1,0,0,0,2,0V9a1,1,0,0,0-1-1H32V5a1,1,0,0,0-1-1H27.12c-0.3-1.58-1.49-4-5.95-4s-5.65,2.42-5.95,4H11a1,1,0,0,0-1,1V8H1A1,1,0,0,0,0,9V49c0,3.32,1.68,5,5,5H25A1,1,0,1,0,25,52ZM12,6h4.13a1,1,0,0,0,1-1c0-2,1.36-3,4-3s4,1,4,3a1,1,0,0,0,1,1H30V16H12V6Z"/><path class="cls-1" d="M26.22,22H13.61a1,1,0,0,0,0,2H26.22A1,1,0,1,0,26.22,22Z"/><path class="cls-1" d="M26.22,28H13.61a1,1,0,0,0,0,2H26.22A1,1,0,1,0,26.22,28Z"/><path class="cls-1" d="M26.22,34H13.61a1,1,0,0,0,0,2H26.22A1,1,0,1,0,26.22,34Z"/><path class="cls-1" d="M21.17,42a1,1,0,0,0,0-2H13.61a1,1,0,0,0,0,2h7.57Z"/></svg>