<svg xmlns="http://www.w3.org/2000/svg" viewBox="0 0 60 60"><defs><style>.a{fill:#43beac;}</style></defs><path class="a" d="M52.71,16.29l-16-16A1,1,0,0,0,36,0H8A1,1,0,0,0,7,1V59a1,1,0,0,0,1,1H52a1,1,0,0,0,1-1V17A1,1,0,0,0,52.71,16.29ZM37,3.41L49.59,16H37V3.41ZM9,58V2H35V17a1,1,0,0,0,1,1H51V58H9Z"/><path class="a" d="M42,26H34a1,1,0,0,0-1,1V40H27V37a1,1,0,0,0-1-1l-0.11,0-0.11,0H19V19.91a1,1,0,0,0-2,0V49a1,1,0,0,0,1,1H42a1,1,0,0,0,1-1s0,0,0,0,0,0,0,0V27A1,1,0,0,0,42,26Zm-7,2h6V48H35V28ZM33,42v6H27V42h6ZM19,38h6V48H19V38Z"/></svg>