<svg id="investor" data-name="Layer 3" xmlns="http://www.w3.org/2000/svg" viewBox="0 0 46 60"><defs><style>.cls-1{fill:#43beac;}</style></defs><path class="cls-1" d="M52.71,16.29l-16-16A1,1,0,0,0,36,0H8A1,1,0,0,0,7,1V59a1,1,0,0,0,1,1H52a1,1,0,0,0,1-1V17A1,1,0,0,0,52.71,16.29ZM37,3.41L49.59,16H37V3.41ZM9,58V2H35V17a1,1,0,0,0,1,1H51V58H9Z" transform="translate(-7)"/><path class="cls-1" d="M44.43,48H17V41.44l9.88-8.92,6.92,4.61A1,1,0,0,0,35.08,37l9.65-10.3a1,1,0,1,0-1.46-1.37L34.2,35l-6.86-4.57a1,1,0,0,0-1.23.09L17,38.75V19.91a1,1,0,0,0-2,0V49a1,1,0,0,0,1,1H44.43A1,1,0,0,0,44.43,48Z" transform="translate(-7)"/></svg>