<svg id="Layer_1" data-name="Layer 1" xmlns="http://www.w3.org/2000/svg" viewBox="0 0 262.38 55.43"><defs><style>.cls-1{fill:#3e1151;}.cls-2{fill:#231f20;}.cls-3{fill:#85d3c5;}.cls-4{fill:#3fbfad;}.cls-5{fill:#808285;}</style></defs><title>nobelium_logo_slim</title><path class="cls-1" d="M95.74,20.44V33.31h0L85.29,20.44H81V21s1.49,0.14,1.5,1.09V36.62h2.4V23.75h0l10.4,12.87h2.79V20.44h-2.4Z"/><path class="cls-1" d="M260.89,35h0V20.44h-3.33l-6.48,13.42-6.41-13.42h-3.38V36.62h2.4V23.48h0L250,36.62h2.13l6.3-13.42h0V36.62h3.9V36.08S260.89,35.94,260.89,35Z"/><path class="cls-1" d="M116.2,20c6.51,0,9,4.35,9,8.5s-2.49,8.5-9,8.5-9-4.35-9-8.5S109.69,20,116.2,20Zm0,2.09c-3.7,0-6.6,2.13-6.6,6.42s2.9,6.42,6.6,6.42,6.6-2.13,6.6-6.42S119.89,22.12,116.2,22.12Z"/><path class="cls-1" d="M134.61,20.44h9c3.45,0,5,1.52,5,4.06a3.33,3.33,0,0,1-2.36,3.42v0a3.69,3.69,0,0,1,3.06,4c0,2.31-1.61,4.67-5.12,4.67h-9.57V20.44Zm9,6.69c1.77,0,2.63-1,2.63-2.27,0-1.47-.79-2.34-2.77-2.34H137v4.6h6.55Zm0,7.41c2.67,0,3.38-1.36,3.38-2.74s-0.73-2.58-3.17-2.58H137v5.33h6.51Z"/><path class="cls-1" d="M159.47,20.44h13v2.09H161.88v4.69h10.29V29.3H161.88v5.24h10.84v2.09H159.47V20.44Z"/><path class="cls-1" d="M182.81,20.44h2.4v14.1h9.84v2.09H182.81V20.44Z"/><path class="cls-1" d="M203.54,20.44h2.4V36.63h-2.4V20.44Z"/><path class="cls-1" d="M216.39,20.44h2.4V30.8c0,2.92,1.95,4.15,4.92,4.15s4.92-1.22,4.92-4.15V20.44H231V30.51c0,4.33-2.4,6.53-7.32,6.53s-7.32-2.2-7.32-6.53V20.44Z"/><path class="cls-2" d="M83.86,43.65H81V43h6.46v0.69H84.62v6.58H83.86V43.65Z"/><path class="cls-2" d="M89.16,43H95v0.69h-5v2.47h4.85v0.69H89.92v2.73H95v0.69H89.16V43Z"/><path class="cls-2" d="M103.74,47.46a3.37,3.37,0,0,1-3.6,3,3.59,3.59,0,0,1-3.87-3.82,3.67,3.67,0,0,1,3.87-3.82c1.59,0,3.31.72,3.54,2.64h-0.75c-0.22-1.39-1.47-1.95-2.78-1.95a2.82,2.82,0,0,0-3.06,3.13,2.85,2.85,0,0,0,3.06,3.13A2.57,2.57,0,0,0,103,47.46h0.75Z"/><path class="cls-2" d="M105.34,43h0.75V46h5.26V43h0.75v7.28h-0.75V46.73h-5.26v3.51h-0.75V43Z"/><path class="cls-2" d="M124.52,47.46a3.37,3.37,0,0,1-3.6,3A3.59,3.59,0,0,1,117,46.6a3.67,3.67,0,0,1,3.87-3.82c1.59,0,3.31.72,3.54,2.64H123.7c-0.22-1.39-1.47-1.95-2.78-1.95a2.82,2.82,0,0,0-3.06,3.13,2.85,2.85,0,0,0,3.06,3.13,2.57,2.57,0,0,0,2.84-2.26h0.75Z"/><path class="cls-2" d="M129.58,42.77a3.82,3.82,0,1,1-4,3.82A3.68,3.68,0,0,1,129.58,42.77Zm0,7a3.13,3.13,0,1,0-3.14-3.13A2.94,2.94,0,0,0,129.58,49.72Z"/><path class="cls-2" d="M135,43h4c1.23,0,2.36.44,2.36,2a1.78,1.78,0,0,1-1.43,1.76v0c1,0.16,1.24.83,1.29,2a3.87,3.87,0,0,0,.25,1.51h-0.82a3.37,3.37,0,0,1-.19-1.49c0-1.28-.51-1.71-1.76-1.71h-2.93v3.2H135V43Zm0.75,3.38H139a1.34,1.34,0,0,0,1.57-1.42,1.25,1.25,0,0,0-1.5-1.27h-3.26v2.69Z"/><path class="cls-2" d="M143.28,43h3.92a2,2,0,0,1,2.19,2.1c0,1.38-.91,2.12-2.53,2.12H144v3.06h-0.75V43ZM144,46.48H147c1.26,0,1.63-.58,1.63-1.43a1.26,1.26,0,0,0-1.48-1.41H144v2.83Z"/><path class="cls-2" d="M150.53,49.11h0.88v1.12h-0.88V49.11Z"/><polygon class="cls-3" points="6.31 12.38 10.51 14.8 20.45 9.06 36.7 18.44 36.69 34.77 4.11 15.96 4.11 15.96 2.1 14.8 0 16.02 0 39.63 20.45 51.43 34.59 43.27 30.39 40.84 20.45 46.58 4.2 37.2 4.2 20.87 36.45 39.49 36.45 39.48 38.8 40.84 40.9 39.63 40.9 16.02 20.45 4.21 6.31 12.38"/><polygon class="cls-4" points="36.69 18.44 36.7 18.44 36.69 34.77 4.11 15.96 4.11 15.96 2.1 14.8 0 16.02 0 39.63 4.21 37.2 4.2 37.2 4.2 20.87 36.45 39.49 36.45 39.48 38.8 40.84 40.9 39.63 40.9 16.02 36.69 18.44"/><rect class="cls-5" x="61.11" width="0.25" height="55.43"/></svg>