<svg xmlns="http://www.w3.org/2000/svg" viewBox="0 0 181.37 86.79"><defs><style>.cls-1{fill:#85d3c5;}.cls-2{fill:#3fbfad;}.cls-3{fill:#3e1151;}.cls-4{fill:#231f20;}</style></defs><polygon class="cls-1" points="76.81 8.01 80.94 10.39 90.69 4.76 106.63 13.96 106.63 29.98 74.66 11.53 74.66 11.53 72.69 10.39 70.63 11.59 70.63 34.75 90.69 46.33 104.57 38.32 100.44 35.94 90.69 41.57 74.75 32.37 74.75 16.34 106.38 34.61 106.39 34.61 108.69 35.94 110.75 34.75 110.75 11.58 90.69 0 76.81 8.01"/><polygon class="cls-2" points="106.62 13.96 106.63 13.96 106.63 29.98 74.66 11.53 74.66 11.53 72.69 10.39 70.63 11.59 70.63 34.74 74.75 32.37 74.75 32.37 74.75 16.34 106.38 34.61 106.39 34.61 108.69 35.94 110.75 34.75 110.75 11.58 106.62 13.96"/><path class="cls-3" d="M14.73,56.81V69.69h0L4.28,56.81H0v0.54s1.49,0.14,1.5,1.09V73H3.9V60.12h0L14.34,73h2.79V56.81h-2.4Z"/><path class="cls-3" d="M179.88,71.36h0V56.81h-3.33l-6.48,13.42-6.41-13.42h-3.38V73h2.4V59.85h0L169,73h2.13l6.3-13.42h0V73h3.9V72.45S179.88,72.32,179.88,71.36Z"/><path class="cls-3" d="M35.19,56.41c6.51,0,9,4.35,9,8.5s-2.49,8.5-9,8.5-9-4.35-9-8.5S28.68,56.41,35.19,56.41Zm0,2.09c-3.7,0-6.6,2.13-6.6,6.42s2.9,6.42,6.6,6.42,6.6-2.13,6.6-6.42S38.88,58.49,35.19,58.49Z"/><path class="cls-3" d="M53.6,56.81h9c3.45,0,5,1.52,5,4.06a3.33,3.33,0,0,1-2.36,3.42v0a3.69,3.69,0,0,1,3.06,4c0,2.31-1.61,4.67-5.12,4.67H53.6V56.81Zm9,6.69c1.77,0,2.63-1,2.63-2.27,0-1.47-.79-2.34-2.77-2.34H56v4.6h6.55Zm0,7.41c2.67,0,3.38-1.36,3.38-2.74s-0.73-2.58-3.17-2.58H56v5.33h6.51Z"/><path class="cls-3" d="M78.46,56.81h13V58.9H80.87v4.69H91.16v2.09H80.87v5.24H91.7V73H78.46V56.81Z"/><path class="cls-3" d="M101.8,56.81h2.4v14.1H114V73H101.8V56.81Z"/><path class="cls-3" d="M122.53,56.81h2.4V73h-2.4V56.81Z"/><path class="cls-3" d="M135.38,56.81h2.4V67.17c0,2.92,1.95,4.15,4.92,4.15s4.92-1.22,4.92-4.15V56.81H150V66.88c0,4.33-2.4,6.53-7.32,6.53s-7.32-2.2-7.32-6.53V56.81Z"/><path class="cls-4" d="M57.6,80H54.74V79.33h6.46V80H58.35v6.58H57.6V80Z"/><path class="cls-4" d="M62.89,79.33h5.79V80h-5v2.47H68.5v0.69H63.65v2.73h5.12v0.69H62.89V79.33Z"/><path class="cls-4" d="M77.48,83.84a3.36,3.36,0,0,1-3.6,3A3.59,3.59,0,0,1,70,83a3.67,3.67,0,0,1,3.87-3.82c1.59,0,3.31.72,3.54,2.64H76.66c-0.22-1.39-1.47-1.95-2.78-1.95A2.82,2.82,0,0,0,70.82,83a2.85,2.85,0,0,0,3.06,3.13,2.57,2.57,0,0,0,2.84-2.26h0.75Z"/><path class="cls-4" d="M79.07,79.33h0.75v3.08h5.26V79.33h0.75v7.28H85.09V83.1H79.83v3.51H79.07V79.33Z"/><path class="cls-4" d="M98.25,83.84a3.37,3.37,0,0,1-3.6,3A3.59,3.59,0,0,1,90.78,83a3.67,3.67,0,0,1,3.87-3.82c1.59,0,3.31.72,3.54,2.64H97.43c-0.22-1.39-1.47-1.95-2.78-1.95A2.82,2.82,0,0,0,91.59,83a2.85,2.85,0,0,0,3.06,3.13,2.57,2.57,0,0,0,2.84-2.26h0.75Z"/><path class="cls-4" d="M103.31,79.15a3.82,3.82,0,1,1-4,3.82A3.68,3.68,0,0,1,103.31,79.15Zm0,7A3.13,3.13,0,1,0,100.17,83,2.94,2.94,0,0,0,103.31,86.1Z"/><path class="cls-4" d="M108.75,79.33h4c1.23,0,2.37.44,2.37,2a1.78,1.78,0,0,1-1.43,1.76v0c1,0.16,1.24.83,1.29,2a3.87,3.87,0,0,0,.25,1.51h-0.82a3.36,3.36,0,0,1-.19-1.49c0-1.28-.51-1.71-1.76-1.71h-2.93v3.2h-0.75V79.33Zm0.75,3.38h3.19a1.34,1.34,0,0,0,1.57-1.42,1.26,1.26,0,0,0-1.5-1.27h-3.26v2.69Z"/><path class="cls-4" d="M117,79.33h3.92a2,2,0,0,1,2.19,2.1c0,1.38-.91,2.12-2.53,2.12h-2.83v3.06H117V79.33Zm0.75,3.53h2.92c1.26,0,1.63-.58,1.63-1.43A1.26,1.26,0,0,0,120.84,80h-3.07v2.83Z"/><path class="cls-4" d="M124.27,85.49h0.88v1.12h-0.88V85.49Z"/></svg>