<svg xmlns="http://www.w3.org/2000/svg" viewBox="0 0 60 60"><defs><style>.a{fill:#43beac;}</style></defs><path class="a" d="M51.71,14.29l-14-14A1,1,0,0,0,37,0H9A1,1,0,0,0,8,1V59a1,1,0,0,0,1,1H51a1,1,0,0,0,1-1V15A1,1,0,0,0,51.71,14.29ZM38,3.41L48.59,14H38V3.41ZM10,58V2H36V15a1,1,0,0,0,1,1H50V58H10Z"/><path class="a" d="M19.22,20H30.57a1,1,0,1,0,0-2H19.22A1,1,0,0,0,19.22,20Z"/><path class="a" d="M41.91,26H19.22a1,1,0,0,0,0,2h22.7A1,1,0,0,0,41.91,26Z"/><path class="a" d="M41.91,34H19.22a1,1,0,0,0,0,2h22.7A1,1,0,0,0,41.91,34Z"/><path class="a" d="M41.91,42H19.22a1,1,0,0,0,0,2h22.7A1,1,0,0,0,41.91,42Z"/><path class="a" d="M41.91,50H19.22a1,1,0,0,0,0,2h22.7A1,1,0,0,0,41.91,50Z"/></svg>